HIERARCHY
ROOT Hips
{
  OFFSET 136.232 102.443 345.725
  CHANNELS 6 Xposition Yposition Zposition Zrotation Xrotation Yrotation
  JOINT RightUpLeg
  {
    OFFSET -8.9458 -8.66707 0.101652
    CHANNELS 3 Zrotation Xrotation Yrotation
    JOINT RightLeg
    {
      OFFSET 0 -44.4227 1.3727
      CHANNELS 3 Zrotation Xrotation Yrotation
      JOINT RightFoot
      {
        OFFSET 0.253549 -42.0924 -1.46059
        CHANNELS 3 Zrotation Xrotation Yrotation
        JOINT RightToes
        {
          OFFSET 0.04 -4.41509 8.4991
          CHANNELS 3 Zrotation Xrotation Yrotation
          End Site
          {
            OFFSET -0.08 -0.137448 9.77979
          }
        }
      }
    }
  }
  JOINT Spine
  {
    OFFSET 0 11.8905 0
    CHANNELS 3 Zrotation Xrotation Yrotation
    JOINT Spine1
    {
      OFFSET 0 25.6574 0.127663
      CHANNELS 3 Zrotation Xrotation Yrotation
      JOINT HEad
      {
        OFFSET 0 8.73416 0.011341
        CHANNELS 3 Zrotation Xrotation Yrotation
        End Site
        {
          OFFSET -0.29 12.7742 2.51395
        }
      }
      JOINT LeftShoulder1
      {
        OFFSET 8.99 -0.362252 -0.22
        CHANNELS 3 Zrotation Xrotation Yrotation
        JOINT LeftArm
        {
          OFFSET 10.2827 -0.00338 0.322123
          CHANNELS 3 Zrotation Xrotation Yrotation
          JOINT LeftForeArm
          {
            OFFSET 32.7669 0.099144 -1.42434
            CHANNELS 3 Zrotation Xrotation Yrotation
            JOINT LeftHand
            {
              OFFSET 27.5643 0.085362 1.02216
              CHANNELS 3 Zrotation Xrotation Yrotation
              End Site
              {
                OFFSET 16.7443 -0.6 1.50291
              }
            }
          }
        }
      }
      JOINT RightShoulder
      {
        OFFSET -8.99 -0.362252 -0.22
        CHANNELS 3 Zrotation Xrotation Yrotation
        JOINT RightArm
        {
          OFFSET -10.2827 -0.00338 0.322123
          CHANNELS 3 Zrotation Xrotation Yrotation
          JOINT RightForeArm
          {
            OFFSET -32.8971 0.099144 -1.42434
            CHANNELS 3 Zrotation Xrotation Yrotation
            JOINT RightHand
            {
              OFFSET -27.4921 0.085362 1.02216
              CHANNELS 3 Zrotation Xrotation Yrotation
              End Site
              {
                OFFSET -16.6312 -0.6 1.50291
              }
            }
          }
        }
      }
    }
  }
  JOINT LeftUpLeg
  {
    OFFSET 8.9458 -8.66707 0.101652
    CHANNELS 3 Zrotation Xrotation Yrotation
    JOINT LeftLeg
    {
      OFFSET 0 -44.4227 1.3727
      CHANNELS 3 Zrotation Xrotation Yrotation
      JOINT LeftFoot
      {
        OFFSET -0.253549 -42.0924 -1.46059
        CHANNELS 3 Zrotation Xrotation Yrotation
        JOINT LeftToes
        {
          OFFSET -0.04 -4.41509 8.4991
          CHANNELS 3 Zrotation Xrotation Yrotation
          End Site
          {
            OFFSET 0.08 -0.047448 9.77979
          }
        }
      }
    }
  }
}
MOTION
Frames:	21
Frame Time:	0.0166667
0	103.947	0	0.921113	2.28088	161.107	1.23307	0.416939	-20.6703	0.672096	12.3344	-3.28474	1.03425	-9.17186	-12.035	4.62E-02	5.34E-04	0.662642	-0.144172	-2.86637	-0.700125	-0.324072	-5.72798	-1.41036	2.2322	21.7047	13.2886	7.95E-16	0.00E+00	9.54E-15	-0.052744	-10.8196	-5.98006	-0.669264	12.9858	-8.95686	5.40649	12.1104	1.62802	7.95E-16	0.00E+00	9.54E-15	-0.395892	-13.0063	-2.01503	-0.77748	15.5375	-4.16385	4.91387	13.2592	-1.67252	-4.09E+00	4.10E+00	-16.1251	7.22795	11.3051	-30.8338	-4.8352	-16.5701	-8.5584	1.43E-14	3.20E-14	9.54E-15
-0.014	103.945	-0.011	0.936197	2.28174	161.099	1.23014	0.427784	-20.6729	0.670095	12.3465	-3.26254	1.04383	-9.17136	-11.9604	4.62E-02	5.34E-04	6.63E-01	-0.14347	-2.87679	-0.699928	-0.322788	-5.74881	-1.40998	2.24193	21.7069	13.2913	-7.95E-16	0.00E+00	-6.36E-15	-0.0431296	-10.8212	-5.98485	-0.675903	13.0053	-8.96767	5.38641	12.1014	1.61179	-7.95E-16	0.00E+00	-6.36E-15	-0.388822	-13.0321	-2.01097	-0.810009	15.53	-4.15091	4.90194	13.2386	-1.67542	-4.09E+00	4.12039	-1.61E+01	7.2389	11.3057	-30.8497	-4.83521	-16.5683	-8.56633	1.59E-14	3.30E-14	6.36E-15
-0.031	103.943	-0.032	0.9514	2.28838	161.089	1.23331	0.439618	-20.6619	0.670608	12.3542	-3.25259	1.05375	-9.17306	-11.9743	4.62E-02	5.34E-04	6.63E-01	-0.143309	-2.88546	-0.69969	-0.322549	-5.76616	-1.40954	2.24397	21.7076	13.2844	7.95E-16	0.00E+00	3.18E-15	-0.0418516	-10.8112	-5.98407	-0.667619	13.0308	-8.98619	5.38896	12.0881	1.59957	7.95E-16	0.00E+00	3.18E-15	-0.381621	-13.0433	-1.99444	-0.83393	15.5399	-4.14137	4.90676	13.2364	-1.67701	-4.09E+00	4.14153	-16.0904	7.23907	11.3079	-30.8575	-4.83675	-16.5643	-8.57597	1.51E-14	3.18E-14	9.54E-15
-0.048	103.941	-0.053	0.966234	2.29461	161.077	1.23271	0.453121	-20.6514	0.670426	12.3633	-3.239	1.06629	-9.18209	-12.0646	4.62E-02	5.34E-04	6.63E-01	-0.14311	-2.89377	-0.69941	-0.322441	-5.78278	-1.40915	2.24195	21.7079	13.2702	7.95E-16	3.18E-15	0.00E+00	-0.0417215	-10.7933	-5.98852	-0.667059	13.0324	-8.99022	5.40423	12.0651	1.58651	7.95E-16	3.18E-15	0.00E+00	-0.381684	-13.0337	-1.9753	-0.838693	15.5521	-4.14071	4.91255	13.2475	-1.678	-4.09E+00	4.16E+00	-1.61E+01	7.23802	11.3146	-30.8539	-4.83842	-16.5588	-8.58484	1.67E-14	3.10E-14	6.36E-15
-0.065	103.94	-0.072	0.978271	2.30175	161.06	1.22737	0.467861	-20.6376	0.669933	12.3709	-3.22396	1.0783	-9.18906	-12.0918	4.62E-02	5.34E-04	6.63E-01	-0.142911	-2.90194	-0.699098	-0.322465	-5.79913	-1.4083	2.23451	21.7075	13.2573	1.59E-15	0.00E+00	3.18E-15	-0.0352479	-10.784	-5.99412	-0.671454	13.0113	-8.98935	5.39363	12.0489	1.59308	1.59E-15	0.00E+00	3.18E-15	-0.394128	-13.0104	-1.94647	-0.828804	15.5511	-4.14318	4.91928	13.2492	-1.6787	-4.09918	4.1806	-1.61E+01	7.23621	11.3232	-30.8149	-4.83151	-16.5497	-8.56444	1.83E-14	3.14E-14	3.18E-15
-0.087	103.938	-0.098	0.98936	2.30823	161.04	1.21906	0.4777	-20.6165	0.670991	12.3807	-3.21484	1.08961	-9.19734	-12.192	4.62E-02	5.34E-04	6.63E-01	-0.14271	-2.90991	-0.698763	-0.322563	-5.81506	-1.40652	2.23374	21.7073	13.2321	-7.95E-16	-1.59E-15	3.18E-15	-0.0209285	-10.791	-5.99757	-0.676247	12.9945	-8.98378	5.35223	12.0472	1.5985	-7.95E-16	-1.59E-15	3.18E-15	-0.39682	-13.006	-1.92774	-0.829924	15.5447	-4.14295	4.93087	13.2337	-1.67952	-4.11E+00	4.20E+00	-1.62E+01	7.23418	11.3334	-30.7562	-4.82277	-16.5432	-8.53508	1.51E-14	3.10E-14	1.27E-14
-0.107	103.936	-0.117	0.997586	2.30928	161.014	1.20656	0.48521	-20.6047	0.671244	12.3906	-3.20091	1.10191	-9.20377	-12.2247	4.62E-02	5.34E-04	6.63E-01	-0.142508	-2.91775	-0.698413	-0.322596	-5.83075	-1.40254	2.23873	21.7016	13.2125	7.95E-16	4.77E-15	6.36E-15	-0.0134725	-10.798	-6.00156	-0.678986	12.9974	-8.97234	5.29604	12.0479	1.60611	7.95E-16	4.77E-15	6.36E-15	-0.381513	-13.0232	-1.90989	-0.848641	15.5391	-4.13552	4.94866	13.2239	-1.68108	-4.12E+00	4.21E+00	-1.62E+01	7.23231	11.3405	-30.7117	-4.83288	-16.5291	-8.57102	1.51E-14	3.38E-14	6.36E-15
-0.124	103.935	-0.128	1.00576	2.31379	160.985	1.19558	0.496144	-20.595	0.671961	12.3966	-3.18734	1.10837	-9.20271	-12.1307	4.62E-02	5.34E-04	6.63E-01	-0.1423	-2.92494	-0.698058	-0.322632	-5.84514	-1.39747	2.24207	21.6977	13.1942	-7.95E-16	-1.59E-15	0.00E+00	-0.00410963	-10.7886	-6.00498	-0.680324	13.0086	-8.95795	5.24541	12.046	1.61482	-7.95E-16	-1.59E-15	0.00E+00	-0.364632	-13.0273	-1.8946	-0.868292	15.5372	-4.12769	4.97095	13.2303	-1.68423	-4.14E+00	4.23E+00	-1.62E+01	7.23157	11.3474	-30.6719	-4.83321	-16.5281	-8.5202	1.67E-14	3.24E-14	1.27E-14
-0.143	103.934	-0.149	1.01624	2.32216	160.959	1.18889	0.502772	-20.5956	0.67294	12.4085	-3.17207	1.11209	-9.20948	-12.2014	4.62E-02	5.34E-04	6.63E-01	-0.142068	-2.93014	-0.697706	-0.322852	-5.85558	-1.39389	2.24012	21.6916	13.195	0.00E+00	3.18E-15	0.00E+00	0.0053852	-10.7735	-6.00855	-0.676469	13.0201	-8.96374	5.20445	12.0345	1.62236	0.00E+00	3.18E-15	0.00E+00	-0.357773	-13.0277	-1.87398	-0.883062	15.5525	-4.12179	4.98899	13.2448	-1.68709	-4.15E+00	4.24E+00	-16.2399	7.23194	11.3545	-30.6579	-4.83498	-16.528	-8.48906	1.67E-14	3.22E-14	3.18E-15
-0.161	103.931	-0.158	1.02789	2.33179	160.929	1.17771	0.512958	-20.5835	0.673638	12.4269	-3.15733	1.12016	-9.21856	-12.2053	4.62E-02	5.34E-04	6.63E-01	-0.141825	-2.93426	-0.697367	-0.323261	-5.86384	-1.39158	2.24	21.6887	13.2032	7.95E-16	1.59E-15	-3.18E-15	0.0142452	-10.7495	-6.01142	-0.6771	13.0026	-8.97033	5.1928	12.0271	1.62511	7.95E-16	1.59E-15	-3.18E-15	-0.345771	-13.0176	-1.85751	-0.899934	15.5647	-4.11505	5.01004	13.2591	-1.68988	-4.15E+00	4.26E+00	-1.62E+01	7.22949	11.3638	-30.6448	-4.83437	-16.528	-8.45857	1.43E-14	3.26E-14	6.36E-15
-0.181	103.929	-0.17	1.04389	2.34817	160.903	1.17139	0.523859	-20.5791	0.672071	12.4478	-3.1375	1.12381	-9.22702	-12.2135	4.62E-02	5.34E-04	6.63E-01	-0.141565	-2.9369	-0.697048	-0.323802	-5.86913	-1.39033	2.24654	21.6984	13.2077	-7.95E-16	0.00E+00	0.00E+00	0.0286332	-10.7201	-6.01289	-0.685572	12.9631	-8.96156	5.19649	12.0236	1.62731	-7.95E-16	0.00E+00	0.00E+00	-0.331728	-12.998	-1.85713	-0.917401	15.5744	-4.10808	5.03462	13.2638	-1.69319	-4.16E+00	4.27E+00	-1.63E+01	7.22492	11.3835	-30.6154	-4.8333	-16.5274	-8.44437	1.59E-14	3.10E-14	1.27E-14
-0.201	103.926	-0.18	1.05765	2.36135	160.88	1.16375	0.528687	-20.5746	0.671093	12.4729	-3.12115	1.13045	-9.23901	-12.2848	4.62E-02	5.34E-04	0.662642	-0.141309	-2.93975	-0.69676	-0.324482	-5.87481	-1.38958	2.25323	21.7156	13.2152	-1.77E-31	-1.59E-15	-6.36E-15	0.0415444	-10.7052	-6.01255	-0.694218	12.9412	-8.9493	5.19923	12.0118	1.62934	-1.77E-31	-1.59E-15	-6.36E-15	-0.321043	-12.9963	-1.86002	-0.940779	15.5932	-4.09874	5.06474	13.2663	-1.69791	-4.16E+00	4.28E+00	-1.63E+01	7.21915	11.4045	-30.5726	-4.82852	-16.5267	-8.43127	1.51E-14	3.36E-14	6.36E-15
-0.219	103.924	-0.177	1.0721	2.37251	160.864	1.1512	0.537406	-20.5786	0.669435	12.4963	-3.10366	1.13403	-9.24183	-12.1851	4.62E-02	5.34E-04	6.63E-01	-0.141065	-2.94351	-0.696513	-0.325333	-5.88221	-1.38948	2.25451	21.7439	13.2253	0.00E+00	0.00E+00	3.18E-15	0.0550186	-10.7004	-6.00719	-0.702115	12.9412	-8.95052	5.16763	12.0126	1.63126	0.00E+00	0.00E+00	3.18E-15	-0.32496	-12.9846	-1.86171	-0.948254	15.6032	-4.09667	5.08803	13.2677	-1.70086	-4.17E+00	4.29E+00	-1.63E+01	7.21939	11.4266	-30.538	-4.82859	-16.5238	-8.46704	1.59E-14	3.10E-14	9.54E-15
-0.242	103.921	-0.181	1.08652	2.3813	160.853	1.14694	0.536543	-20.5891	0.668742	12.5135	-3.09345	1.1385	-9.24071	-12.1964	4.62E-02	5.34E-04	6.63E-01	-0.140816	-2.94663	-0.696314	-0.326287	-5.88862	-1.39017	2.24787	21.7719	13.2429	-7.95E-16	0.00E+00	6.36E-15	0.0691006	-10.6918	-5.99613	-0.707969	12.9622	-8.95734	5.13273	12.0182	1.63296	-7.95E-16	0.00E+00	6.36E-15	-0.327999	-12.9764	-1.8569	-0.950505	15.5986	-4.09772	5.09741	13.2676	-1.70291	-4.1771	4.29547	-1.63E+01	7.22177	11.4422	-30.5098	-4.82334	-16.5218	-8.47532	1.51E-14	3.16E-14	3.18E-15
-0.264	103.919	-0.183	1.10279	2.39318	160.844	1.13593	0.542649	-20.5943	0.668283	12.5328	-3.08497	1.1481	-9.23977	-12.2003	4.62E-02	5.34E-04	6.63E-01	-0.140551	-2.94841	-0.696173	-0.327313	-5.89291	-1.3918	2.24057	21.802	13.261	7.95E-16	4.77E-15	-3.18E-15	0.0825939	-10.6624	-5.98708	-0.704637	12.9722	-8.95955	5.10894	12.0206	1.6343	7.95E-16	4.77E-15	-3.18E-15	-0.334034	-12.9737	-1.84694	-0.947367	15.5884	-4.09996	5.10393	13.2568	-1.704	-4.19E+00	4.30515	-1.63E+01	7.23074	11.4565	-30.5039	-4.8141	-16.5205	-8.45071	1.43E-14	3.10E-14	6.36E-15
-0.283	103.917	-0.177	1.11888	2.40187	160.835	1.13621	0.549105	-20.5957	0.667017	12.5441	-3.07563	1.15288	-9.24215	-12.1062	4.62E-02	5.34E-04	6.63E-01	-0.140287	-2.94998	-0.696098	-0.328579	-5.89549	-1.39606	2.23592	21.8298	13.2671	1.77E-31	-3.18E-15	3.18E-15	0.0931508	-10.6229	-5.98652	-0.702849	12.9584	-8.94949	5.10513	12.0136	1.63518	1.77E-31	-3.18E-15	3.18E-15	-0.343499	-12.9642	-1.84548	-0.938924	15.5782	-4.10139	5.13937	13.2449	-1.71749	-4.19E+00	4.32E+00	-1.63E+01	7.23275	11.4607	-30.5018	-4.80854	-16.5178	-8.43153	1.27E-14	3.30E-14	9.54E-15
-0.298	103.915	-0.163	1.13041	2.41138	160.827	1.13694	0.551786	-20.5858	0.667824	12.5555	-3.07647	1.15374	-9.24662	-11.9498	4.62E-02	5.34E-04	6.63E-01	-0.140021	-2.95134	-0.6961	-0.329719	-5.8969	-1.39942	2.23213	21.8547	13.2594	-1.59E-15	0.00E+00	3.18E-15	0.104437	-10.5927	-5.99271	-0.705389	12.9287	-8.93681	5.10479	12.0014	1.6348	-1.59E-15	0.00E+00	3.18E-15	-0.353052	-12.9503	-1.85164	-0.937596	15.5763	-4.10004	5.20545	13.2531	-1.73443	-4.20E+00	4.32E+00	-16.3272	7.22776	11.4623	-30.5002	-4.81117	-16.5081	-8.43944	1.75E-14	3.28E-14	3.18E-15
-0.319	103.913	-0.165	1.13919	2.4219	160.823	1.13615	0.553132	-20.5741	0.66953	12.5679	-3.08168	1.15891	-9.24285	-12.04	4.62E-02	5.34E-04	6.63E-01	-0.139754	-2.95245	-0.696186	-0.330792	-5.89816	-1.4024	2.23303	21.8815	13.2492	0.00E+00	0.00E+00	3.18E-15	0.122755	-10.5827	-6.00772	-0.712056	12.8959	-8.924	5.09808	12.0083	1.64711	0.00E+00	0.00E+00	3.18E-15	-0.350722	-12.9491	-1.87049	-0.955149	15.5912	-4.09302	5.26913	13.2781	-1.75078	-4.20E+00	4.33E+00	-16.3257	7.21764	11.4629	-30.4974	-4.7977	-16.505	-8.38756	1.83E-14	3.10E-14	3.18E-15
-0.336	103.912	-0.164	1.14387	2.42918	160.819	1.12658	0.553407	-20.5655	0.670769	12.5728	-3.08681	1.16305	-9.24004	-12.1049	4.62E-02	5.34E-04	6.63E-01	-0.139489	-2.95331	-0.696415	-0.331794	-5.89923	-1.40512	2.23579	21.9151	13.241	0.00E+00	0.00E+00	3.18E-15	0.144877	-10.5691	-6.03033	-0.718985	12.8775	-8.90624	5.08081	12.0164	1.6625	0.00E+00	0.00E+00	3.18E-15	-0.340238	-12.9585	-1.87831	-0.981854	15.6143	-4.08236	5.30071	13.2866	-1.76909	-4.20E+00	4.34E+00	-1.63E+01	7.2085	11.463	-30.4936	-4.80303	-16.4869	-8.41026	1.67E-14	3.16E-14	6.36E-15
-0.354	103.911	-0.162	1.1472	2.43465	160.816	1.12453	0.55291	-20.5551	0.671303	12.571	-3.09041	1.16386	-9.23708	-12.183	4.62E-02	5.34E-04	6.63E-01	-0.139227	-2.95387	-0.696816	-0.332837	-5.90004	-1.40886	2.2396	21.9406	13.2336	0.00E+00	0.00E+00	0.00E+00	0.166912	-10.5632	-6.02898	-0.719496	12.8835	-8.90313	5.05019	12.0237	1.66727	0.00E+00	0.00E+00	0.00E+00	-0.334696	-12.9827	-1.90709	-1.01663	15.6344	-4.06848	5.30576	13.2741	-1.77635	-4.21159	4.33925	-16.3241	7.20545	11.4629	-30.4903	-4.79749	-16.4765	-8.39754	1.83E-14	3.22E-14	6.36E-15
-0.367	103.91	-0.151	1.14845	2.43598	160.813	1.11251	0.551927	-20.541	0.672307	12.5652	-3.09703	1.16881	-9.2301	-12.0861	4.62E-02	5.34E-04	0.662642	-0.138963	-2.95413	-0.697347	-0.333734	-5.90056	-1.41198	2.23805	21.9597	13.2307	-1.59E-15	-1.59E-15	3.18E-15	0.187989	-10.5407	-6.02887	-0.718287	12.888	-8.90837	5.04064	12.0246	1.67124	-1.59E-15	-1.59E-15	3.18E-15	-0.326871	-13.0123	-1.9376	-1.05308	15.661	-4.05393	5.28735	13.2622	-1.77786	-4.21E+00	4.34E+00	-1.63E+01	7.19741	11.463	-30.4889	-4.78704	-16.4672	-8.3788	1.75E-14	3.10E-14	6.36E-15
